PathFileType	4	(X/Y/Z)	8_coords_data.trc
DataRate	CameraRate	NumFrames	NumMarkers	Units	OrigDataRate	OrigDataStartFrame	OrigNumFrames
30.0	30.0	8	21	m	30.0	47	56
Frame#	Time	THUMB_TIP	THUMB_IP	THUMB_MCP	THUMB_CMC	INDEX_TIP	INDEX_DIP	INDEX_PIP	INDEX_MCP	MIDDLE_TIP	MIDDLE_DIP	MIDDLE_PIP	MIDDLE_MCP	RING_TIP	RING_DIP	RING_PIP	RING_MCP	PINKY_TIP	PINKY_DIP	PINKY_PIP	PINKY_MCP	WRIST
X1	Y1	Z1	X2	Y2	Z2	X3	Y3	Z3	X4	Y4	Z4	X5	Y5	Z5	X6	Y6	Z6	X7	Y7	Z7	X8	Y8	Z8	X9	Y9	Z9	X10	Y10	Z10	X11	Y11	Z11	X12	Y12	Z12	X13	Y13	Z13	X14	Y14	Z14	X15	Y15	Z15	X16	Y16	Z16	X17	Y17	Z17	X18	Y18	Z18	X19	Y19	Z19	X20	Y20	Z20	X21	Y21	Z21
46	1.5333333333333334	-0.06424720001220703	-0.08290850067138672	0.9590689697265625	-0.05744879913330078	-0.061238998413085936	0.9734609985351562	-0.05533829879760742	-0.040915699005126954	0.9918400268554688	-0.05245159912109375	-0.011335300445556641	1.0062000122070311	-0.03664970016479492	-0.04152460098266601	0.8767410278320312	-0.04217599868774414	-0.03858219909667969	0.897655029296875	-0.05001089859008789	-0.03442800140380859	0.918052001953125	-0.05944079971313477	-0.0256033992767334	0.9528880004882813	-0.029844200134277344	-0.014657299995422363	0.8633820190429687	-0.03729219818115234	-0.012899200439453124	0.8859910278320312	-0.049115001678466795	-0.009573060035705567	0.9106589965820312	-0.058079200744628905	-0.004996580123901367	0.9479630126953125	-0.027798299789428712	0.007176899909973143	0.8713809814453125	-0.0364463996887207	0.00961023998260498	0.8927780151367187	-0.046688499450683596	0.011990500450134276	0.9159409790039063	-0.05166899871826172	0.012639699935913086	0.9496799926757813	-0.030329599380493164	0.03443989944458008	0.8939630126953125	-0.03545449829101562	0.03336809921264648	0.9135889892578125	-0.04037260055541992	0.0318041000366211	0.9303770141601563	-0.044231601715087894	0.028357599258422853	0.9561820068359375	-0.0713136978149414	0.01762350082397461	1.0214500122070314
47	1.5666666666666667	-0.06568949890136719	-0.0824834976196289	0.9575999755859375	-0.05894079971313477	-0.060879901885986326	0.972093994140625	-0.05659870147705078	-0.0405625	0.9906170043945313	-0.0536327018737793	-0.010990500450134277	1.0050700073242187	-0.04024480056762696	-0.04233940124511719	0.8751699829101562	-0.04528170013427734	-0.038879600524902344	0.8962550048828125	-0.05256790161132813	-0.034420200347900394	0.9166270141601562	-0.060717601776123044	-0.025087600708007814	0.951614990234375	-0.03354809951782227	-0.013905200004577636	0.8616190185546875	-0.0403672981262207	-0.01220069980621338	0.884469970703125	-0.05141429901123047	-0.008911040306091309	0.90943798828125	-0.05942670059204101	-0.0044048700332641605	0.9468980102539063	-0.03166230010986328	0.00860165023803711	0.8695609741210938	-0.03967599868774414	0.010814599990844727	0.8912329711914062	-0.04929880142211914	0.012997200012207031	0.9147379760742187	-0.05327190017700195	0.013246700286865235	0.9485479736328125	-0.033862598419189455	0.03575120162963867	0.8925009765625	-0.03835120010375977	0.034501499176025394	0.9123759765625	-0.04276250076293946	0.032768501281738284	0.9292069702148438	-0.04590349960327148	0.02905299949645996	0.9549249877929687	-0.0722073974609375	0.017915599822998046	1.02052001953125
48	1.6	-0.06668810272216796	-0.08213580322265625	0.9564110107421875	-0.0597052001953125	-0.06073199844360352	0.9709349975585938	-0.05731740188598633	-0.04053549957275391	0.9896400146484375	-0.054381099700927735	-0.010954700469970702	1.0043300170898437	-0.04291960144042969	-0.042262901306152345	0.8738289794921875	-0.047307899475097656	-0.0387677993774414	0.8950189819335937	-0.05404489898681641	-0.034209800720214845	0.915676025390625	-0.061398700714111326	-0.024781400680541993	0.9508140258789063	-0.035675098419189456	-0.012862899780273437	0.8602319946289062	-0.04204330062866211	-0.011436900138854981	0.8833469848632812	-0.05264939880371094	-0.008384550094604492	0.9085750122070313	-0.06027479934692383	-0.004090350151062011	0.9463590087890625	-0.03331639862060547	0.009441149711608888	0.8685460205078125	-0.04098740005493164	0.011488699913024902	0.8904730224609375	-0.050263500213623045	0.013440199851989746	0.9141129760742187	-0.05405590057373047	0.013566499710083007	0.9479840087890625	-0.035200401306152346	0.03683829879760742	0.8918790283203125	-0.03949179840087891	0.035326000213623046	0.9117780151367187	-0.04375569915771484	0.0333661003112793	0.9286259765625	-0.0466974983215332	0.02934510040283203	0.9543480224609375	-0.07295780181884766	0.017849199295043944	1.0198599853515624
49	1.6333333333333333	-0.06777439880371093	-0.08193769836425781	0.9555399780273437	-0.06057640075683594	-0.06056999969482422	0.9701329956054687	-0.05787770080566406	-0.040447799682617185	0.988916015625	-0.054813701629638674	-0.01095930004119873	1.0037999877929686	-0.04620619964599609	-0.041863700866699216	0.8725880126953125	-0.049781700134277344	-0.038365299224853516	0.8939630126953125	-0.055751399993896486	-0.03380569839477539	0.9148790283203125	-0.06184550094604492	-0.024568099975585938	0.9499630126953125	-0.03793090057373047	-0.011709799766540527	0.8591279907226562	-0.04374660110473633	-0.010487099647521973	0.8824199829101562	-0.0537775993347168	-0.007614870071411133	0.9079149780273438	-0.06070830154418945	-0.0037838799953460694	0.9457639770507813	-0.03498360061645508	0.010680999755859375	0.867760986328125	-0.04225740051269531	0.012490900039672851	0.8898109741210938	-0.05125699996948242	0.014149200439453126	0.9135800170898437	-0.05449829864501953	0.013870100021362304	0.947427978515625	-0.035975200653076175	0.03747840118408203	0.891572998046875	-0.04022710037231445	0.035832000732421876	0.9113709716796875	-0.04436539840698242	0.03380419921875	0.9282000122070313	-0.04713399887084961	0.029578699111938476	0.9540750122070313	-0.07315270233154297	0.017690200805664063	1.0194000244140624
50	1.6666666666666667	-0.06860330200195312	-0.08175679779052734	0.9548489990234375	-0.061276500701904296	-0.060484699249267575	0.9694990234375	-0.058473701477050784	-0.040500900268554685	0.9883699951171875	-0.05517929840087891	-0.011115500450134277	1.0033699951171875	-0.04729399871826172	-0.041768901824951174	0.8719219970703125	-0.050581600189208986	-0.0382671012878418	0.8934119873046875	-0.056370800018310546	-0.033701900482177735	0.9143350219726563	-0.062158500671386716	-0.0244153995513916	0.9494140014648438	-0.03859920120239258	-0.011247300148010253	0.8586380004882812	-0.04424879837036133	-0.010127400398254395	0.8818720092773438	-0.054125801086425784	-0.007367879867553711	0.9074119873046875	-0.060877300262451174	-0.0036744201183319092	0.9450800170898438	-0.03555099868774414	0.010984800338745116	0.867302001953125	-0.042633098602294923	0.012705300331115723	0.8894000244140625	-0.051428699493408205	0.014266699790954589	0.9131539916992187	-0.054691501617431644	0.01393850040435791	0.9471400146484374	-0.03593040084838867	0.03769680023193359	0.8913109741210937	-0.04018019866943359	0.03597420120239258	0.9111840209960937	-0.04438050079345703	0.03387979888916016	0.9279810180664062	-0.047270198822021485	0.029598899841308594	0.9537329711914062	-0.07356500244140625	0.017694299697875976	1.0192100219726563
51	1.7	-0.06880770111083985	-0.0818301010131836	0.9547880249023437	-0.06135359954833984	-0.06057469940185547	0.96935302734375	-0.05850329971313477	-0.04052989959716797	0.9882050170898438	-0.05529800033569336	-0.011098600387573243	1.0032100219726563	-0.048466899871826175	-0.041576198577880856	0.871427978515625	-0.05129309844970703	-0.03813510131835938	0.8929979858398438	-0.05665840148925781	-0.0336526985168457	0.9140170288085937	-0.062197399139404294	-0.024348300933837892	0.9493920288085937	-0.04036660003662109	-0.01090590000152588	0.8579860229492188	-0.0454718017578125	-0.00993274974822998	0.8813980102539063	-0.05478799819946289	-0.007258269786834717	0.9072230224609374	-0.06092279815673828	-0.0036454401016235353	0.94497900390625	-0.03668140029907226	0.011394499778747558	0.8668579711914063	-0.0435015983581543	0.013001399993896484	0.8890819702148437	-0.0519640998840332	0.014465399742126465	0.913052978515625	-0.05478150177001953	0.013966400146484375	0.946906982421875	-0.036718101501464845	0.038298099517822266	0.8911019897460938	-0.040736801147460935	0.03639879989624024	0.911	-0.044784000396728516	0.03413460159301758	0.927781982421875	-0.047360801696777345	0.029616399765014647	0.9534569702148438	-0.07365149688720703	0.01760580062866211	1.01897998046875
52	1.7333333333333334	-0.06842160034179688	-0.0818364028930664	0.9547169799804688	-0.060999298095703126	-0.06055160140991211	0.9692540283203125	-0.05819620132446289	-0.04046139907836914	0.988072021484375	-0.05508219909667969	-0.010999099731445312	1.003030029296875	-0.04942850112915039	-0.041211898803710935	0.8710850219726562	-0.05187540054321289	-0.03784550094604492	0.8926810302734375	-0.056955101013183594	-0.033391700744628904	0.9137639770507813	-0.06195819854736328	-0.02424679946899414	0.9490609741210938	-0.04124800109863281	-0.010674599647521973	0.8576530151367188	-0.0460369987487793	-0.009715499877929688	0.8810759887695313	-0.05509099960327148	-0.007069079875946045	0.90702099609375	-0.06085580062866211	-0.0035505900382995603	0.9448389892578125	-0.037290401458740234	0.011804900169372558	0.8665770263671875	-0.04389149856567383	0.013305000305175781	0.8888729858398438	-0.05215190124511719	0.014718999862670898	0.9128920288085938	-0.05465639877319336	0.01410140037536621	0.946760009765625	-0.03735860061645508	0.03928710174560547	0.890989013671875	-0.041179798126220704	0.03708779907226562	0.9108480224609375	-0.045019798278808594	0.034617698669433594	0.9276409912109375	-0.04731940078735351	0.02978070068359375	0.9533679809570312	-0.07353610229492187	0.017800199508666993	1.018969970703125
53	1.7666666666666666	-0.06866249847412109	-0.08167970275878907	0.9544500122070313	-0.06121820068359375	-0.060407901763916014	0.9691580200195312	-0.058299701690673826	-0.0403672981262207	0.9879829711914062	-0.05500130081176758	-0.010937199592590333	1.002989990234375	-0.04920220184326172	-0.04115570068359375	0.8709609985351563	-0.05160089874267578	-0.03770949935913086	0.8926199951171875	-0.05665240097045898	-0.03320090103149414	0.9137340087890625	-0.061592998504638674	-0.02397249984741211	0.94897900390625	-0.04007569885253906	-0.010300200462341308	0.85772900390625	-0.045042800903320315	-0.009349120140075684	0.881176025390625	-0.0542577018737793	-0.0067224597930908205	0.9070170288085937	-0.06020009994506836	-0.003283499956130981	0.9446719970703125	-0.03617020034790039	0.012088199615478516	0.866697998046875	-0.042875598907470704	0.013567000389099122	0.8889920043945313	-0.05126449966430664	0.014943099975585938	0.9128270263671875	-0.054002498626708986	0.014305999755859375	0.9467449951171875	-0.036199901580810545	0.03968980026245117	0.8913309936523437	-0.040179901123046875	0.037428199768066404	0.9110910034179688	-0.044120899200439455	0.03489099884033203	0.9278770141601562	-0.046555801391601564	0.029934600830078126	0.9535050048828125	-0.07326239776611328	0.017833099365234376	1.01877001953125
